<mxfile host="app.diagrams.net" agent="Mozilla/5.0 (Windows NT 10.0; Win64; x64) AppleWebKit/537.36 (KHTML, like Gecko) Chrome/130.0.0.0 Safari/537.36" version="24.7.17">
  <diagram name="Page-1" id="2YBvvXClWsGukQMizWep">
    <mxGraphModel dx="706" dy="818" grid="1" gridSize="10" guides="1" tooltips="1" connect="1" arrows="1" fold="1" page="1" pageScale="1" pageWidth="850" pageHeight="1100" math="0" shadow="0">
      <root>
        <mxCell id="0" />
        <mxCell id="1" parent="0" />
        <mxCell id="aM9ryv3xv72pqoxQDRHE-1" value=":Object" style="shape=umlLifeline;perimeter=lifelinePerimeter;whiteSpace=wrap;html=1;container=0;dropTarget=0;collapsible=0;recursiveResize=0;outlineConnect=0;portConstraint=eastwest;newEdgeStyle={&quot;edgeStyle&quot;:&quot;elbowEdgeStyle&quot;,&quot;elbow&quot;:&quot;vertical&quot;,&quot;curved&quot;:0,&quot;rounded&quot;:0};" parent="1" vertex="1">
          <mxGeometry x="40" y="40" width="100" height="300" as="geometry" />
        </mxCell>
        <mxCell id="aM9ryv3xv72pqoxQDRHE-2" value="" style="html=1;points=[];perimeter=orthogonalPerimeter;outlineConnect=0;targetShapes=umlLifeline;portConstraint=eastwest;newEdgeStyle={&quot;edgeStyle&quot;:&quot;elbowEdgeStyle&quot;,&quot;elbow&quot;:&quot;vertical&quot;,&quot;curved&quot;:0,&quot;rounded&quot;:0};" parent="aM9ryv3xv72pqoxQDRHE-1" vertex="1">
          <mxGeometry x="45" y="70" width="10" height="190" as="geometry" />
        </mxCell>
        <mxCell id="aM9ryv3xv72pqoxQDRHE-3" value="dispatch" style="html=1;verticalAlign=bottom;startArrow=oval;endArrow=block;startSize=8;edgeStyle=elbowEdgeStyle;elbow=vertical;curved=0;rounded=0;" parent="aM9ryv3xv72pqoxQDRHE-1" target="aM9ryv3xv72pqoxQDRHE-2" edge="1">
          <mxGeometry relative="1" as="geometry">
            <mxPoint x="-15" y="70" as="sourcePoint" />
          </mxGeometry>
        </mxCell>
        <mxCell id="aM9ryv3xv72pqoxQDRHE-4" value="" style="html=1;points=[];perimeter=orthogonalPerimeter;outlineConnect=0;targetShapes=umlLifeline;portConstraint=eastwest;newEdgeStyle={&quot;edgeStyle&quot;:&quot;elbowEdgeStyle&quot;,&quot;elbow&quot;:&quot;vertical&quot;,&quot;curved&quot;:0,&quot;rounded&quot;:0};" parent="aM9ryv3xv72pqoxQDRHE-1" vertex="1">
          <mxGeometry x="50" y="120" width="10" height="80" as="geometry" />
        </mxCell>
        <mxCell id="aM9ryv3xv72pqoxQDRHE-5" value=":Object" style="shape=umlLifeline;perimeter=lifelinePerimeter;whiteSpace=wrap;html=1;container=0;dropTarget=0;collapsible=0;recursiveResize=0;outlineConnect=0;portConstraint=eastwest;newEdgeStyle={&quot;edgeStyle&quot;:&quot;elbowEdgeStyle&quot;,&quot;elbow&quot;:&quot;vertical&quot;,&quot;curved&quot;:0,&quot;rounded&quot;:0};" parent="1" vertex="1">
          <mxGeometry x="220" y="40" width="100" height="300" as="geometry" />
        </mxCell>
        <mxCell id="aM9ryv3xv72pqoxQDRHE-6" value="" style="html=1;points=[];perimeter=orthogonalPerimeter;outlineConnect=0;targetShapes=umlLifeline;portConstraint=eastwest;newEdgeStyle={&quot;edgeStyle&quot;:&quot;elbowEdgeStyle&quot;,&quot;elbow&quot;:&quot;vertical&quot;,&quot;curved&quot;:0,&quot;rounded&quot;:0};" parent="aM9ryv3xv72pqoxQDRHE-5" vertex="1">
          <mxGeometry x="45" y="80" width="10" height="170" as="geometry" />
        </mxCell>
        <mxCell id="aM9ryv3xv72pqoxQDRHE-7" value="dispatch" style="html=1;verticalAlign=bottom;endArrow=block;edgeStyle=elbowEdgeStyle;elbow=vertical;curved=0;rounded=0;" parent="1" source="aM9ryv3xv72pqoxQDRHE-2" target="aM9ryv3xv72pqoxQDRHE-6" edge="1">
          <mxGeometry relative="1" as="geometry">
            <mxPoint x="195" y="130" as="sourcePoint" />
            <Array as="points">
              <mxPoint x="180" y="120" />
            </Array>
          </mxGeometry>
        </mxCell>
        <mxCell id="aM9ryv3xv72pqoxQDRHE-8" value="return" style="html=1;verticalAlign=bottom;endArrow=open;dashed=1;endSize=8;edgeStyle=elbowEdgeStyle;elbow=vertical;curved=0;rounded=0;" parent="1" source="aM9ryv3xv72pqoxQDRHE-6" target="aM9ryv3xv72pqoxQDRHE-2" edge="1">
          <mxGeometry relative="1" as="geometry">
            <mxPoint x="195" y="205" as="targetPoint" />
            <Array as="points">
              <mxPoint x="190" y="280" />
            </Array>
          </mxGeometry>
        </mxCell>
        <mxCell id="aM9ryv3xv72pqoxQDRHE-9" value="callback" style="html=1;verticalAlign=bottom;endArrow=block;edgeStyle=elbowEdgeStyle;elbow=vertical;curved=0;rounded=0;" parent="1" source="aM9ryv3xv72pqoxQDRHE-6" target="aM9ryv3xv72pqoxQDRHE-4" edge="1">
          <mxGeometry relative="1" as="geometry">
            <mxPoint x="175" y="160" as="sourcePoint" />
            <Array as="points">
              <mxPoint x="190" y="160" />
            </Array>
          </mxGeometry>
        </mxCell>
        <mxCell id="aM9ryv3xv72pqoxQDRHE-10" value="return" style="html=1;verticalAlign=bottom;endArrow=open;dashed=1;endSize=8;edgeStyle=elbowEdgeStyle;elbow=vertical;curved=0;rounded=0;" parent="1" source="aM9ryv3xv72pqoxQDRHE-4" target="aM9ryv3xv72pqoxQDRHE-6" edge="1">
          <mxGeometry relative="1" as="geometry">
            <mxPoint x="175" y="235" as="targetPoint" />
            <Array as="points">
              <mxPoint x="180" y="230" />
            </Array>
          </mxGeometry>
        </mxCell>
        <mxCell id="dzgXMHapNwowrjusKW1O-1" value="Presentationslagret" style="rounded=1;whiteSpace=wrap;html=1;" parent="1" vertex="1">
          <mxGeometry x="80" y="440" width="160" height="60" as="geometry" />
        </mxCell>
        <mxCell id="dzgXMHapNwowrjusKW1O-2" value="API" style="rounded=1;whiteSpace=wrap;html=1;" parent="1" vertex="1">
          <mxGeometry x="320" y="440" width="160" height="60" as="geometry" />
        </mxCell>
        <mxCell id="dzgXMHapNwowrjusKW1O-3" value="Datalager" style="rounded=1;whiteSpace=wrap;html=1;" parent="1" vertex="1">
          <mxGeometry x="560" y="440" width="160" height="60" as="geometry" />
        </mxCell>
        <mxCell id="dzgXMHapNwowrjusKW1O-9" value="" style="rounded=0;whiteSpace=wrap;html=1;rotation=90;" parent="1" vertex="1">
          <mxGeometry x="50" y="530" width="220" height="157.5" as="geometry" />
        </mxCell>
        <mxCell id="dzgXMHapNwowrjusKW1O-11" value="" style="rounded=0;whiteSpace=wrap;html=1;rotation=90;" parent="1" vertex="1">
          <mxGeometry x="530" y="530" width="220" height="160" as="geometry" />
        </mxCell>
        <mxCell id="dzgXMHapNwowrjusKW1O-12" value="" style="rounded=0;whiteSpace=wrap;html=1;rotation=90;" parent="1" vertex="1">
          <mxGeometry x="290" y="530" width="220" height="160" as="geometry" />
        </mxCell>
        <mxCell id="exSdz0iTrDbsph4KnE0r-6" value="" style="endArrow=classic;startArrow=classic;html=1;rounded=0;entryX=0;entryY=0.5;entryDx=0;entryDy=0;exitX=1;exitY=0.5;exitDx=0;exitDy=0;" edge="1" parent="1" source="exSdz0iTrDbsph4KnE0r-11" target="exSdz0iTrDbsph4KnE0r-10">
          <mxGeometry width="50" height="50" relative="1" as="geometry">
            <mxPoint x="240" y="600" as="sourcePoint" />
            <mxPoint x="320" y="550" as="targetPoint" />
          </mxGeometry>
        </mxCell>
        <mxCell id="exSdz0iTrDbsph4KnE0r-7" value="" style="endArrow=classic;html=1;rounded=0;exitX=1;exitY=0.5;exitDx=0;exitDy=0;" edge="1" parent="1" source="exSdz0iTrDbsph4KnE0r-10" target="exSdz0iTrDbsph4KnE0r-8">
          <mxGeometry width="50" height="50" relative="1" as="geometry">
            <mxPoint x="500" y="610" as="sourcePoint" />
            <mxPoint x="550" y="560" as="targetPoint" />
            <Array as="points">
              <mxPoint x="520" y="560" />
            </Array>
          </mxGeometry>
        </mxCell>
        <mxCell id="exSdz0iTrDbsph4KnE0r-8" value="get_techniques()" style="rounded=0;whiteSpace=wrap;html=1;" vertex="1" parent="1">
          <mxGeometry x="585" y="535" width="110" height="50" as="geometry" />
        </mxCell>
        <mxCell id="exSdz0iTrDbsph4KnE0r-9" value="search()" style="rounded=0;whiteSpace=wrap;html=1;" vertex="1" parent="1">
          <mxGeometry x="585" y="615" width="110" height="50" as="geometry" />
        </mxCell>
        <mxCell id="exSdz0iTrDbsph4KnE0r-10" value="techniques_sida()" style="rounded=0;whiteSpace=wrap;html=1;" vertex="1" parent="1">
          <mxGeometry x="345" y="575" width="110" height="50" as="geometry" />
        </mxCell>
        <mxCell id="exSdz0iTrDbsph4KnE0r-11" value="techniques.html" style="rounded=0;whiteSpace=wrap;html=1;" vertex="1" parent="1">
          <mxGeometry x="105" y="575" width="110" height="50" as="geometry" />
        </mxCell>
        <mxCell id="exSdz0iTrDbsph4KnE0r-12" value="" style="endArrow=classic;html=1;rounded=0;entryX=0;entryY=0.5;entryDx=0;entryDy=0;" edge="1" parent="1" target="exSdz0iTrDbsph4KnE0r-9">
          <mxGeometry width="50" height="50" relative="1" as="geometry">
            <mxPoint x="455" y="600" as="sourcePoint" />
            <mxPoint x="505" y="550" as="targetPoint" />
            <Array as="points">
              <mxPoint x="520" y="640" />
            </Array>
          </mxGeometry>
        </mxCell>
        <mxCell id="exSdz0iTrDbsph4KnE0r-13" value="Presentationslagret" style="rounded=1;whiteSpace=wrap;html=1;" vertex="1" parent="1">
          <mxGeometry x="80" y="780" width="160" height="60" as="geometry" />
        </mxCell>
        <mxCell id="exSdz0iTrDbsph4KnE0r-14" value="API" style="rounded=1;whiteSpace=wrap;html=1;" vertex="1" parent="1">
          <mxGeometry x="320" y="780" width="160" height="60" as="geometry" />
        </mxCell>
        <mxCell id="exSdz0iTrDbsph4KnE0r-15" value="Datalager" style="rounded=1;whiteSpace=wrap;html=1;" vertex="1" parent="1">
          <mxGeometry x="560" y="780" width="160" height="60" as="geometry" />
        </mxCell>
        <mxCell id="exSdz0iTrDbsph4KnE0r-16" value="" style="rounded=0;whiteSpace=wrap;html=1;rotation=90;" vertex="1" parent="1">
          <mxGeometry x="50" y="870" width="220" height="157.5" as="geometry" />
        </mxCell>
        <mxCell id="exSdz0iTrDbsph4KnE0r-17" value="" style="rounded=0;whiteSpace=wrap;html=1;rotation=90;" vertex="1" parent="1">
          <mxGeometry x="530" y="870" width="220" height="160" as="geometry" />
        </mxCell>
        <mxCell id="exSdz0iTrDbsph4KnE0r-18" value="" style="rounded=0;whiteSpace=wrap;html=1;rotation=90;" vertex="1" parent="1">
          <mxGeometry x="290" y="870" width="220" height="160" as="geometry" />
        </mxCell>
        <mxCell id="exSdz0iTrDbsph4KnE0r-19" value="" style="endArrow=classic;startArrow=classic;html=1;rounded=0;entryX=0;entryY=0.5;entryDx=0;entryDy=0;exitX=1;exitY=0.5;exitDx=0;exitDy=0;" edge="1" parent="1" source="exSdz0iTrDbsph4KnE0r-24" target="exSdz0iTrDbsph4KnE0r-23">
          <mxGeometry width="50" height="50" relative="1" as="geometry">
            <mxPoint x="240" y="940" as="sourcePoint" />
            <mxPoint x="320" y="890" as="targetPoint" />
          </mxGeometry>
        </mxCell>
        <mxCell id="exSdz0iTrDbsph4KnE0r-20" value="" style="endArrow=classic;html=1;rounded=0;exitX=1;exitY=0.5;exitDx=0;exitDy=0;" edge="1" parent="1" source="exSdz0iTrDbsph4KnE0r-23" target="exSdz0iTrDbsph4KnE0r-21">
          <mxGeometry width="50" height="50" relative="1" as="geometry">
            <mxPoint x="500" y="950" as="sourcePoint" />
            <mxPoint x="550" y="900" as="targetPoint" />
            <Array as="points">
              <mxPoint x="520" y="900" />
            </Array>
          </mxGeometry>
        </mxCell>
        <mxCell id="exSdz0iTrDbsph4KnE0r-21" value="get_techniques()" style="rounded=0;whiteSpace=wrap;html=1;" vertex="1" parent="1">
          <mxGeometry x="585" y="875" width="110" height="50" as="geometry" />
        </mxCell>
        <mxCell id="exSdz0iTrDbsph4KnE0r-22" value="search()" style="rounded=0;whiteSpace=wrap;html=1;" vertex="1" parent="1">
          <mxGeometry x="585" y="955" width="110" height="50" as="geometry" />
        </mxCell>
        <mxCell id="exSdz0iTrDbsph4KnE0r-23" value="techniques_sida()" style="rounded=0;whiteSpace=wrap;html=1;" vertex="1" parent="1">
          <mxGeometry x="345" y="915" width="110" height="50" as="geometry" />
        </mxCell>
        <mxCell id="exSdz0iTrDbsph4KnE0r-24" value="list.html" style="rounded=0;whiteSpace=wrap;html=1;" vertex="1" parent="1">
          <mxGeometry x="105" y="915" width="110" height="50" as="geometry" />
        </mxCell>
        <mxCell id="exSdz0iTrDbsph4KnE0r-25" value="" style="endArrow=classic;html=1;rounded=0;entryX=0;entryY=0.5;entryDx=0;entryDy=0;" edge="1" parent="1" target="exSdz0iTrDbsph4KnE0r-22">
          <mxGeometry width="50" height="50" relative="1" as="geometry">
            <mxPoint x="455" y="940" as="sourcePoint" />
            <mxPoint x="505" y="890" as="targetPoint" />
            <Array as="points">
              <mxPoint x="520" y="980" />
            </Array>
          </mxGeometry>
        </mxCell>
      </root>
    </mxGraphModel>
  </diagram>
</mxfile>
